<svg version="1.1" xmlns="http://www.w3.org/2000/svg" xmlns:xlink="http://www.w3.org/1999/xlink" width="256.000000pt" height="256.000000pt" viewBox="0,0,256,256"><g fill="#515f65" fill-rule="nonzero" stroke="none" stroke-width="1" stroke-linecap="butt" stroke-linejoin="miter" stroke-miterlimit="10" stroke-dasharray="" stroke-dashoffset="0" font-family="none" font-weight="none" font-size="none" text-anchor="none" style="mix-blend-mode: normal"><g transform="translate(-0.03677,5.44186)"><g transform="translate(0,256) scale(0.1,-0.1)"><path d="M2320,2547c-31,-15 -47,-47 -60,-117c-15,-82 -61,-154 -123,-195c-68,-45 -139,-61 -322,-74c-82,-6 -177,-18 -210,-27c-230,-60 -399,-234 -413,-425c-4,-65 -3,-69 26,-98c65,-65 152,-26 165,74c9,61 55,145 99,178c92,69 183,95 374,106c83,5 179,17 214,26c204,53 348,204 381,401c15,84 5,120 -40,147c-34,20 -57,21 -91,4z"></path><path d="M597,1646c-72,-27 -150,-82 -225,-161c-88,-91 -138,-163 -199,-284c-113,-224 -176,-554 -139,-731c31,-147 134,-309 221,-346c57,-23 132,-18 202,16c47,22 96,61 195,156c73,69 161,147 196,171c123,88 268,133 432,133c164,0 309,-45 432,-133c35,-24 123,-102 196,-171c99,-95 148,-134 195,-156c70,-34 145,-39 202,-16c87,37 190,199 221,346c11,55 14,101 9,170c-18,259 -99,506 -230,705c-59,91 -208,235 -285,275c-59,32 -72,35 -150,35c-110,0 -161,-24 -296,-140c-134,-116 -184,-140 -294,-140c-110,0 -160,24 -294,140c-125,108 -187,139 -281,142c-42,2 -85,-2 -108,-11zM1940,1282c100,-72 53,-222 -70,-222c-41,0 -54,5 -84,34c-32,30 -36,39 -36,83c0,106 106,165 190,105zM790,1180v-100h100h101l-3,-97l-3,-98l-97,-3l-98,-3v-94v-95h-100h-100v95v94l-97,3l-98,3l-3,98l-3,97h101h100v100v100h100h100zM1731,1095c63,-33 86,-112 49,-172c-62,-102 -215,-69 -227,48c-5,53 11,86 56,116c40,27 80,29 122,8zM2157,1066c27,-29 33,-44 33,-81c0,-37 -6,-52 -33,-81c-65,-71 -172,-50 -206,40c-13,33 -13,44 0,79c32,93 140,115 206,43zM1955,880c33,-31 49,-89 34,-127c-26,-70 -99,-108 -159,-83c-97,40 -110,176 -21,226c38,21 115,13 146,-16z"></path></g></g></g></svg>