<svg version="1.1" xmlns="http://www.w3.org/2000/svg" xmlns:xlink="http://www.w3.org/1999/xlink" width="24" height="24" viewBox="0,0,256,256"><g fill="#515f65" fill-rule="nonzero" stroke="none" stroke-width="1" stroke-linecap="butt" stroke-linejoin="miter" stroke-miterlimit="10" stroke-dasharray="" stroke-dashoffset="0" font-family="none" font-weight="none" font-size="none" text-anchor="none" style="mix-blend-mode: normal"><g transform="translate(0,-0.01333) scale(10.66667,10.66667)"><path d="M13.78,15.3l6,6l2.11,-2.16l-6,-6l-2.11,2.16M17.5,10.1c-0.39,0 -0.81,-0.05 -1.14,-0.19l-11.39,11.34l-2.11,-2.11l7.41,-7.4l-1.77,-1.78l-0.72,0.7l-1.45,-1.41v2.86l-0.7,0.7l-3.52,-3.56l0.7,-0.7h2.81l-1.4,-1.41l3.56,-3.56c1.17,-1.17 3.05,-1.17 4.22,0l-2.11,2.16l1.41,1.4l-0.71,0.71l1.79,1.78l1.82,-1.88c-0.14,-0.33 -0.2,-0.75 -0.2,-1.12c0,-1.97 1.56,-3.52 3.5,-3.52c0.59,0 1.11,0.14 1.58,0.42l-2.67,2.67l1.5,1.5l2.67,-2.67c0.28,0.47 0.42,0.97 0.42,1.6c0,1.92 -1.55,3.47 -3.5,3.47z"></path></g></g></svg>