<svg version="1.1" id="Layer_1" xmlns="http://www.w3.org/2000/svg" xmlns:xlink="http://www.w3.org/1999/xlink" x="0px" y="0px"
	 width="100%" viewBox="0 0 799 1198" enable-background="new 0 0 799 1198" xml:space="preserve">
<path fill="#000000" opacity="1.000000" stroke="none" 
	d="
M800.000000,42.000000 
	C800.000000,378.030914 800.000000,714.061829 799.535034,1050.483521 
	C685.463989,1051.469360 571.858093,1052.071411 458.252014,1052.657959 
	C305.834717,1053.444946 153.417343,1054.219849 1.000000,1055.000000 
	C1.000000,718.969116 1.000000,382.938171 1.248695,46.559021 
	C1.670416,46.160904 1.843442,46.111038 2.470714,46.181328 
	C3.091556,46.305969 3.258176,46.315140 3.424745,46.314285 
	C267.957367,44.952259 532.489990,43.589798 797.022583,42.218163 
	C798.015381,42.213017 799.007568,42.075626 800.000000,42.000000 
z"/>
<path fill="#F2F2F2" opacity="1.000000" stroke="none" 
	d="
M800.000000,1068.000000 
	C800.000000,1111.648682 800.000000,1155.297485 800.000000,1198.943604 
	C533.666687,1198.941162 267.333313,1198.941162 1.000000,1198.941162 
	C1.000000,1156.899414 1.000000,1114.916748 1.468617,1072.459961 
	C20.388521,1071.662231 38.838688,1071.166260 57.291298,1071.045898 
	C120.881142,1070.631348 184.471848,1070.347412 248.062225,1070.014648 
	C311.819153,1069.680908 375.576080,1069.348145 439.333008,1069.014526 
	C502.923401,1068.681763 566.513489,1068.234741 630.104309,1068.048462 
	C686.735779,1067.882568 743.368042,1068.004883 800.000000,1068.000000 
z"/>
<path fill="#F1F1F1" opacity="1.000000" stroke="none" 
	d="
M214.000000,1.000000 
	C409.000000,1.000000 604.000000,1.000000 800.000000,1.000000 
	C800.000000,11.000000 800.000000,22.000000 799.000000,33.000000 
	C741.801758,34.327824 684.540955,34.674065 627.279968,34.986561 
	C563.023438,35.337231 498.766754,35.655121 434.510132,35.991486 
	C371.419464,36.321754 308.328796,36.659286 245.238144,36.989983 
	C181.148117,37.325912 117.058144,37.675491 52.967957,37.978851 
	C35.645660,38.060844 18.322672,37.996937 1.000000,38.000000 
	C1.000000,26.979105 1.000000,15.958210 1.311077,4.076338 
	C2.452683,3.177592 3.283071,3.110244 4.113761,3.106263 
	C71.675858,2.782478 139.238022,2.475052 206.799820,2.097633 
	C209.201859,2.084215 211.600021,1.381472 214.000000,1.000000 
z"/>
<path fill="#DCDCDC" opacity="1.000000" stroke="none" 
	d="
M800.000000,1067.532471 
	C743.368042,1068.004883 686.735779,1067.882568 630.104309,1068.048462 
	C566.513489,1068.234741 502.923401,1068.681763 439.333008,1069.014526 
	C375.576080,1069.348145 311.819153,1069.680908 248.062225,1070.014648 
	C184.471848,1070.347412 120.881142,1070.631348 57.291298,1071.045898 
	C38.838688,1071.166260 20.388521,1071.662231 1.468617,1071.993042 
	C1.000000,1066.645020 1.000000,1061.290161 1.000000,1055.467529 
	C153.417343,1054.219849 305.834717,1053.444946 458.252014,1052.657959 
	C571.858093,1052.071411 685.463989,1051.469360 799.535034,1050.937134 
	C800.000000,1056.354980 800.000000,1061.709839 800.000000,1067.532471 
z"/>
<path fill="#DADADA" opacity="1.000000" stroke="none" 
	d="
M1.000000,38.437500 
	C18.322672,37.996937 35.645660,38.060844 52.967957,37.978851 
	C117.058144,37.675491 181.148117,37.325912 245.238144,36.989983 
	C308.328796,36.659286 371.419464,36.321754 434.510132,35.991486 
	C498.766754,35.655121 563.023438,35.337231 627.279968,34.986561 
	C684.540955,34.674065 741.801758,34.327824 799.531372,33.998238 
	C800.000000,36.370556 800.000000,38.741116 800.000000,41.555836 
	C799.007568,42.075626 798.015381,42.213017 797.022583,42.218163 
	C532.489990,43.589798 267.957367,44.952259 3.424745,46.314285 
	C3.258176,46.315140 3.091556,46.305969 2.360867,45.953102 
	C1.531182,45.403145 1.265591,45.201572 1.000000,45.000000 
	C1.000000,42.958332 1.000000,40.916668 1.000000,38.437500 
z"/>

<path fill="#F1F1F1" opacity="1.000000" stroke="none" 
	d="
M1.000000,45.250000 
	C1.265591,45.201572 1.531182,45.403145 1.906621,45.832943 
	C1.843442,46.111038 1.670416,46.160904 1.248695,46.105385 
	C1.000000,46.000000 1.000000,45.500000 1.000000,45.250000 
z"/>
</svg>