<?xml version="1.0" standalone="no"?>
<!DOCTYPE svg PUBLIC "-//W3C//DTD SVG 20010904//EN"
 "http://www.w3.org/TR/2001/REC-SVG-20010904/DTD/svg10.dtd">
<svg version="1.0" xmlns="http://www.w3.org/2000/svg"
 width="933.000000pt" height="777.000000pt" viewBox="0 0 933.000000 777.000000"
 preserveAspectRatio="xMidYMid meet">

<g transform="translate(0.000000,777.000000) scale(0.100000,-0.100000)"
fill="#000000" stroke="none">
<path d="M825 7719 c-281 -41 -523 -217 -652 -474 -43 -84 -71 -186 -83 -296
-13 -129 -13 -5989 0 -6118 17 -161 65 -290 155 -416 50 -70 145 -165 207
-208 71 -48 198 -105 288 -129 l85 -23 3865 0 3865 0 85 23 c321 85 550 317
633 639 l22 88 0 3085 0 3085 -22 88 c-82 320 -306 548 -628 639 l-80 23
-3840 1 c-2134 1 -3867 -2 -3900 -7z m7720 -587 c65 -30 122 -85 151 -147 l24
-50 0 -3045 0 -3045 -24 -50 c-29 -63 -97 -126 -162 -151 -48 -19 -135 -19
-3844 -19 -3709 0 -3796 0 -3844 19 -65 25 -133 88 -162 151 l-24 50 0 3045
c0 3040 0 3045 21 3090 39 87 125 154 218 170 25 4 1745 7 3821 6 l3775 -1 50
-23z"/>
<path d="M2383 5694 c-54 -20 -128 -85 -155 -138 -29 -57 -35 -159 -14 -223
22 -65 75 -127 140 -161 l51 -27 2285 0 2285 0 51 27 c106 56 160 156 152 277
-6 82 -33 136 -93 189 -89 78 126 72 -2399 71 -1969 0 -2266 -2 -2303 -15z"/>
<path d="M2435 4170 c-99 -20 -162 -66 -204 -151 -80 -160 0 -352 169 -401 67
-19 4513 -19 4580 0 119 35 200 145 200 272 0 122 -69 222 -188 270 -32 13
-311 15 -2277 16 -1232 1 -2258 -2 -2280 -6z"/>
<path d="M2410 2631 c-138 -43 -218 -158 -208 -300 6 -82 33 -136 93 -189 89
-78 -125 -72 2395 -72 2520 0 2306 -6 2395 72 60 53 87 107 93 189 8 121 -46
221 -152 277 l-51 27 -2270 2 c-1248 1 -2281 -2 -2295 -6z"/>
</g>
</svg>
